<mxfile host="app.diagrams.net" modified="2023-05-15T14:26:16.807Z" agent="Mozilla/5.0 (Windows NT 10.0; Win64; x64) AppleWebKit/537.36 (KHTML, like Gecko) Chrome/113.0.0.0 Safari/537.36" version="21.3.2" etag="zQs9DSPHchTUU4nzrO5m" type="github">
  <diagram name="PÃ¡gina-1" id="8l4Rl1D2a9NTStSmJtuK">
    <mxGraphModel>
      <root>
        <mxCell id="0" />
        <mxCell id="1" parent="0" />
      </root>
    </mxGraphModel>
  </diagram>
</mxfile>
